<svg xmlns="http://www.w3.org/2000/svg" version="1.0" width="512.000000" height="512.000000" preserveAspectRatio="xMidYMid meet" style=""><rect id="backgroundrect" width="100%" height="100%" x="0" y="0" fill="none" stroke="none"/>


<g class="currentLayer" style=""><title>Layer 1</title><g transform="translate(0,512) scale(0.10000000149011612,-0.10000000149011612) " fill="#ffffff" stroke="none" id="svg_1" class="selected" fill-opacity="1">
<path d="M2292 4519 c-74 -14 -150 -56 -208 -113 -63 -64 -98 -133 -114 -228 l-12 -67 -66 6 c-74 6 -164 -12 -231 -47 -64 -32 -139 -113 -174 -187 -29 -62 -32 -77 -34 -173 l-1 -105 -34 -3 c-98 -7 -207 -61 -273 -133 -38 -43 -95 -151 -95 -181 0 -10 -3 -18 -7 -18 -4 0 -101 94 -217 209 -224 221 -261 248 -369 271 -259 53 -498 -183 -447 -443 24 -125 22 -122 644 -744 548 -550 583 -583 616 -583 39 1 61 14 79 48 22 41 3 73 -107 184 l-106 108 82 84 c71 72 82 88 82 118 0 46 -34 78 -83 78 -33 0 -47 -9 -120 -80 l-83 -79 -204 204 -204 204 82 85 c63 66 82 92 82 114 0 58 -56 101 -107 81 -16 -5 -62 -44 -103 -85 l-76 -74 -141 143 c-150 151 -173 185 -173 262 0 115 94 214 205 215 102 0 73 25 760 -659 598 -595 644 -639 705 -666 112 -50 246 -46 360 10 61 31 145 117 174 179 45 96 56 222 26 301 -8 20 -4 23 52 33 164 30 296 163 327 326 5 26 10 49 13 51 2 2 34 -1 71 -8 195 -33 398 88 454 271 9 31 18 59 20 61 2 3 37 -28 78 -69 l74 -74 -64 -67 c-65 -67 -77 -96 -59 -144 10 -25 62 -48 93 -40 16 4 157 136 376 354 311 309 358 351 422 385 123 63 270 82 402 51 35 -9 68 -18 73 -21 5 -3 -25 -41 -66 -85 -51 -54 -88 -105 -113 -156 -34 -69 -38 -85 -41 -175 -3 -61 0 -116 8 -144 l13 -45 -215 -217 c-118 -119 -229 -238 -247 -265 -88 -130 -128 -253 -142 -432 -16 -209 -48 -301 -153 -431 -62 -77 -71 -114 -36 -152 29 -30 62 -36 99 -18 72 38 192 232 226 366 10 36 23 130 30 210 15 155 34 224 86 318 24 42 148 174 469 497 483 486 479 481 467 588 -8 64 -42 115 -121 179 -202 162 -473 209 -719 123 -136 -47 -196 -93 -440 -334 l-227 -225 -493 491 c-533 531 -540 538 -672 562 -66 12 -92 12 -153 0z m200 -192 c24 -14 179 -162 344 -329 335 -337 340 -344 332 -457 -9 -120 -99 -210 -219 -219 -99 -7 -133 12 -290 164 -152 149 -172 158 -223 108 -46 -47 -37 -72 64 -180 67 -72 93 -109 106 -147 52 -158 -61 -316 -226 -317 -101 0 -127 20 -437 331 -155 156 -291 302 -302 324 -25 47 -29 148 -8 198 51 121 205 181 325 127 26 -12 98 -74 191 -165 131 -128 152 -145 181 -145 46 0 80 33 80 78 0 31 -14 49 -123 162 -132 135 -157 177 -157 264 0 86 76 190 161 223 53 20 150 10 201 -20z m2458 -632 c0 -13 -50 -70 -141 -160 l-141 -140 7 50 c11 85 48 151 137 241 l82 84 28 -27 c15 -15 28 -36 28 -48z m-3429 -271 c51 -15 71 -32 371 -332 355 -354 365 -367 355 -474 -15 -172 -202 -274 -354 -194 -16 8 -170 158 -345 333 -341 343 -338 339 -338 446 0 106 78 202 185 228 47 11 68 10 126 -7z" id="svg_2" fill="#ffffff" fill-opacity="1"/>
<path d="M1435 1939 c-32 -18 -45 -40 -45 -78 0 -33 34 -69 603 -639 331 -332 615 -610 631 -619 55 -29 116 10 116 74 0 36 -21 59 -612 650 -638 638 -642 641 -693 612z" id="svg_3" fill="#ffffff" fill-opacity="1"/>
</g></g></svg>