<svg width="320" height="333" viewBox="0 0 320 333" fill="none" xmlns="http://www.w3.org/2000/svg">
<path d="M123.985 170.046C125.212 170.405 140.761 189.06 140.761 189.06H159.584L185.772 216.325L187 236.773H1.52588e-05V0C1.52588e-05 0 5.72868 1.79374 7.36545 2.86998C9.00221 3.94622 11.0482 24.0361 12.2757 25.1123C13.5033 26.1886 22.9147 29.4173 24.1422 30.4935C25.3698 31.5698 32.7352 62.0633 33.5536 63.1395C34.372 64.2158 47.0569 80.0006 47.4661 81.4356C47.8753 82.8706 50.7396 104.754 51.9672 106.189C53.1948 107.624 63.8337 110.135 65.0613 111.57C66.2889 113.005 75.7002 138.476 76.5186 139.553C77.337 140.629 92.477 152.468 93.2954 153.185C94.1138 153.903 101.888 168.252 102.707 168.611C103.525 168.97 122.757 169.687 123.985 170.046Z" fill="#70B4C9"/>
<path d="M57.4439 187.957C56.9389 187.294 54.5907 175.134 53.7511 174.265C52.9115 173.395 50.3549 171.152 49.2376 170.395C48.1203 169.638 47.7984 127.758 45.9551 126.937C44.1119 126.115 40.6211 115.03 36.5179 114.435C32.4148 113.84 29.3753 101.193 28.3117 100.147C27.248 99.1019 20.462 96.3153 19.6951 95.3847C18.9281 94.454 19.6414 84.7113 18.8744 82.8829C18.1075 81.0546 1.52588e-05 62.9397 1.52588e-05 62.9397V236.773H195L177.83 222.994L142.264 224.76L111.195 216.83L102.007 210.419C102.007 210.419 97.3232 207.304 96.4237 207.305C95.5242 207.306 77.2115 206.631 76.3183 206.114C75.4251 205.597 68.4435 196.584 67.7017 195.994C66.96 195.404 57.9489 188.62 57.4439 187.957Z" fill="#5AA2B9"/>
<path d="M108.28 69.8474C113.662 79.8563 111.194 78.4307 114.76 86.8865C119.674 98.539 127.573 110.814 130.243 113.499C126.075 116.076 102.807 120.328 101.055 121.375C97.1526 123.708 99.1446 92.3936 95.5993 86.475C90.337 81.4125 90.3757 67.4581 96.334 66.6015C99.9521 63.7709 104.774 65.1312 108.28 69.8474Z" fill="#FFF9B8"/>
<path opacity="0.05" d="M108.28 69.8473C113.662 79.8561 111.194 78.4305 114.76 86.8863C119.675 98.5388 127.573 110.814 130.243 113.499C126.075 116.076 118.82 114.945 117.069 115.992C113.166 118.325 101.91 76.5067 98.3646 70.5881L96.3342 66.6014C99.9522 63.7707 104.774 65.131 108.28 69.8473Z" fill="#FFF8B9"/>
<path d="M126.285 154.436C127.439 156.773 128.35 158.619 128.541 159.355C128.732 160.091 130.442 165.414 130.43 165.929C130.419 166.444 132.09 170.911 132.763 172.012C133.435 173.113 134.074 175.76 134.074 175.76C134.074 175.76 134.839 182.975 136.194 185.724C137.427 188.225 138.866 192.465 139.766 195.118C140.102 196.11 140.364 196.88 140.511 197.255C140.944 198.357 141.365 199.614 141.521 200.105C141.453 200.428 141.409 201.233 141.775 201.866C142.079 202.392 142.031 202.589 141.983 202.786C141.959 202.885 141.936 202.983 141.956 203.123C141.975 203.255 141.93 203.412 141.876 203.603C141.757 204.023 141.591 204.605 141.946 205.435L151.259 202.299C150.283 201.669 148.262 200.402 147.984 200.374C147.636 200.338 146.028 198.687 145.701 195.824C145.645 195.333 145.573 194.505 145.481 193.444C145.036 188.319 144.121 177.77 142.249 173.643C141.011 170.997 140.649 168.482 140.649 168.482C140.476 167.28 140.055 164.716 139.757 164.075C139.384 163.273 138.639 161.069 138.672 158.925C138.674 158.794 138.681 158.594 138.689 158.331C138.821 154.292 139.436 135.398 131.813 123.798C130.332 121.934 129.388 120.79 128.007 119.116C127.734 118.785 127.445 118.435 127.131 118.054C126.518 117.309 125.464 116.587 124.346 115.822C122.247 114.385 119.927 112.795 119.893 110.622C119.719 109.779 119.656 108.712 119.596 107.699C119.526 106.516 119.461 105.407 119.228 104.813C123.554 102.736 122.817 97.6222 119.769 94.8942C119.862 94.8408 119.945 94.7886 120.024 94.7394C120.282 94.5785 120.49 94.4482 120.812 94.402C121.768 94.2644 130.664 90.846 132.508 88.1848C132.574 88.1076 132.638 88.0352 132.698 87.9662C133.175 87.4243 133.464 87.0949 133.357 86.3512C133.336 86.2043 133.321 86.046 133.305 85.8773C133.23 85.0833 133.134 84.0596 132.262 82.9144C131.935 82.4846 131.436 81.7184 130.851 80.8196C129.547 78.8154 127.813 76.1518 126.595 75.0862C124.831 73.5428 122.045 69.6646 121.852 68.9221C121.698 68.3281 120.908 67.7172 120.532 67.486L120.059 63.0185C120.043 62.5074 119.72 61.6125 118.56 62.1216C118.368 62.2177 118.288 62.0181 118.272 61.9063C118.223 61.571 117.854 61.0251 116.761 61.5246C116.502 61.6303 116.357 61.497 116.317 61.4172C116.429 61.2015 116.235 60.8471 114.902 61.1073C113.895 61.2521 113.919 61.4197 113.919 61.4197C113.619 61.1206 112.87 60.6806 112.276 61.3136C111.682 61.9467 111.83 62.5758 111.978 62.8113C111.471 63.0554 110.523 63.7735 110.793 64.6932C109.906 65.0774 110.267 66.3947 110.459 66.5383C110.571 66.6223 110.878 67.031 111.131 67.3695C111.311 67.6088 111.464 67.8131 111.503 67.8429C111.599 67.9146 112.619 68.4526 113.027 68.3084C113.209 68.244 113.603 68.4572 114.033 68.6902C114.564 68.978 115.15 69.2958 115.462 69.1564C116.025 68.9043 120.863 74.5412 121.549 76.9243C122.098 78.8307 124.581 82.9065 125.753 84.7061C124.906 84.9705 123.023 85.6121 122.266 86.0633C121.138 85.3697 117.66 85.014 116.187 86.0816C115.45 86.6154 115.096 86.8374 114.653 86.7301C114.209 86.6227 113.154 87.0311 112.028 87.5354C110.901 88.0396 105.45 87.1118 107.952 77.3389C108.131 76.7256 106.945 75.1656 106.453 74.0702C103.557 69.2695 99.9422 66.6695 96.7114 68.4516C95.3181 69.2201 94.4341 70.6513 94.0816 72.4322L94.075 72.916C94.0354 73.2355 94.0258 74.0013 94.3045 74.5089C94.6529 75.1435 94.8817 76.1375 94.7743 76.5808C94.6668 77.0241 94.9681 78.5211 95.4843 79.1315C96.0005 79.7419 96.4335 80.9633 96.4818 81.2986C96.5301 81.634 96.6986 82.2088 97.5021 82.4355C97.7296 82.4997 97.9685 82.5006 98.1969 82.5014C98.7755 82.5034 99.2867 82.5052 99.3738 83.5356C99.3924 83.7559 99.4787 84.097 99.5865 84.5234C100.183 86.8799 101.438 91.8419 95.5712 93.4101C93.2653 93.6561 89.1129 95.434 90.9504 100.578C91.9971 101.66 92.4838 103.096 92.5963 103.679C93.1133 105.088 94.788 108.19 97.3503 109.328C100.446 111.193 102.274 116.75 102.359 117.337C102.373 117.433 102.402 117.56 102.441 117.722C102.634 118.542 103.038 120.256 102.641 123.457C102.396 125.433 102.137 126.035 101.829 126.751C101.54 127.424 101.207 128.199 100.801 130.311C98.8933 140.256 104.195 154.474 109.049 163.184C109.943 164.697 110.464 166.678 110.493 168.453C110.545 171.559 111.199 178.108 111.199 178.108C111.199 178.108 111.277 184.6 115.078 195.521C117.135 202.071 117.425 204.682 117.018 205.425C116.612 206.168 116.733 207.605 117.369 207.856C118.004 208.107 117.516 210.659 117.312 211.031C117.109 211.402 116.367 212.793 116.943 213.822C117.405 214.646 123.496 212.338 126.485 211.081C126.376 210.726 126.186 209.96 126.291 209.74C126.423 209.464 126.218 208.039 125.127 208.196C124.036 208.352 123.674 206.436 123.686 205.921C123.697 205.406 123.204 203.765 122.963 203.287C122.939 203.239 122.906 203.181 122.867 203.111C122.506 202.477 121.596 200.875 121.938 197.358C122.318 193.453 121.097 184.386 120.626 181.116C120.445 179.859 120.303 178.432 120.502 176.684C120.879 173.365 121.427 169.791 120.984 168.143C120.652 166.907 120.799 164.521 120.642 162.202C120.046 153.384 120.609 141.155 119.6 139.503C119.835 139.293 119.884 139.223 119.939 139.219C119.989 139.216 120.044 139.271 120.259 139.323C120.608 142.941 123.945 149.698 126.285 154.436Z" fill="#FFE0B3"/>
<path d="M124.509 211.651C124.894 211.495 126.159 211.217 126.483 211.081C126.374 210.726 126.184 209.96 126.289 209.74C126.421 209.464 126.216 208.039 125.125 208.195C124.034 208.352 123.672 206.436 123.684 205.921C123.695 205.406 123.202 203.765 122.961 203.286C122.938 203.239 122.905 203.181 122.865 203.112L122.865 203.11C122.504 202.477 121.594 200.875 121.936 197.358C122.316 193.453 121.095 184.386 120.624 181.116C120.443 179.859 120.301 178.431 120.5 176.684C120.558 176.169 120.621 175.648 120.683 175.128C121.024 172.302 121.357 169.535 120.982 168.143C120.776 167.375 120.755 166.164 120.73 164.801C120.716 163.969 120.7 163.081 120.64 162.202C120.393 158.547 120.345 154.306 120.302 150.475C120.24 145.064 120.188 140.47 119.598 139.503C119.674 139.435 119.731 139.381 119.774 139.34C119.825 139.293 119.858 139.261 119.884 139.243C118.248 133.93 116.711 130.847 115.548 131.014C113.216 131.35 116.392 145.892 118.365 163.641C119.533 169.977 117.636 167.511 118.337 172.374C119.216 178.479 117.797 183.131 118.581 188.341C120.694 194.554 120.811 199.659 122.567 204.113C122.804 205.233 123.744 207.016 123.973 207.933C124.123 208.532 125.391 208.238 125.545 208.734C125.711 209.27 124.331 211.249 124.509 211.651Z" fill="#FAD49B"/>
<path d="M131.813 123.799C133.427 126.254 134.671 129.037 135.63 131.936L94.8501 107.405C93.6919 106.096 92.9187 104.558 92.5961 103.679C92.4836 103.096 91.9969 101.66 90.9502 100.578C90.4714 99.2377 90.3993 98.1258 90.5954 97.2099L128.985 120.303C129.899 121.414 130.706 122.405 131.813 123.799Z" fill="#FAD49B"/>
<path d="M119.259 85.4092C118.094 85.3798 116.903 85.5623 116.186 86.0817C115.449 86.6156 115.096 86.8375 114.652 86.7302C114.208 86.6228 113.154 87.0312 112.027 87.5355C110.9 88.0398 105.45 87.112 107.951 77.339C108.069 76.9357 107.597 76.1227 107.119 75.3018C106.871 74.8746 106.621 74.4453 106.453 74.0703C103.556 69.2697 101.115 70.3776 101.292 72.4775C101.414 73.915 102.415 74.4045 102.363 75.7468C102.345 76.1963 102.112 76.3819 102.184 76.8849C102.338 77.9509 102.405 78.7109 102.258 79.1848C101.979 80.0834 100.785 80.2523 100.785 80.2523C100.785 80.2523 99.1902 80.4815 98.1596 81.0574C97.5817 81.3804 96.9504 82.7719 96.4812 81.2988C96.5295 81.6341 96.698 82.2089 97.5016 82.4357C97.729 82.4999 97.9679 82.5007 98.1963 82.5015C98.7749 82.5035 99.2861 82.5053 99.3732 83.5358C99.3773 83.5843 99.3847 83.6386 99.3948 83.6985L111.034 89.5609C113.802 89.5323 116.656 88.1536 116.656 88.1536C117.147 87.9973 119.28 86.7493 119.259 85.4092Z" fill="#FAD49B"/>
<path d="M91.3332 95.5902C91.0072 96.0227 90.755 96.5294 90.6153 97.1195L91.3332 95.5902Z" fill="#FAD49B"/>
<path d="M100.397 76.97C100.558 77.2358 99.7981 77.5697 98.9445 77.8631C98.0803 78.3845 97.2496 78.5917 97.0889 78.326C96.9283 78.0602 97.4985 77.4221 98.3627 76.9007C99.2268 76.3793 100.236 76.7043 100.397 76.97Z" fill="white"/>
<path d="M99.5358 78.1214C100.265 77.9481 100.518 77.2098 100.554 76.8623L100.47 76.8744C100.334 77.1221 99.907 77.6058 99.2833 77.5586C98.5037 77.4995 97.8208 78.1112 97.665 78.2192C97.4971 78.2434 97.066 78.8189 97.3419 78.9504C97.6179 79.0819 98.2894 78.9854 98.5291 78.8653C98.7689 78.7453 98.6245 78.338 99.5358 78.1214Z" fill="#FF8EB0"/>
<path d="M119.769 94.8939C121.02 96.0138 121.882 97.5358 122.164 99.0847L119.764 99.4297C118.981 99.5423 118.268 98.9637 118.218 98.1744L117.9 93.1868C117.862 92.5878 118.222 92.0351 118.786 91.8284C118.786 91.8284 127.032 92.9938 133.371 86.4848C133.426 87.1366 133.144 87.4579 132.697 87.9662L132.64 88.0309C132.597 88.0802 132.552 88.1314 132.506 88.1849C130.663 90.8459 121.768 94.2641 120.811 94.4017C120.49 94.4479 120.281 94.5781 120.024 94.739C119.945 94.7883 119.861 94.8404 119.769 94.8939Z" fill="#FAD49B"/>
<path d="M97.8792 76.7337C98.2619 75.823 100.037 76.8513 100.541 76.7789C100.553 76.8627 100.541 77.0184 100.397 76.9707C99.6057 76.8278 98.239 76.8531 97.9637 77.3206C97.5513 77.3114 97.329 78.0679 97.2695 78.4472C97.0379 78.6231 96.6129 78.8839 96.766 78.5196C96.9574 78.0643 96.836 76.627 97.8792 76.7337Z" fill="#FF8EB0"/>
<path d="M151.258 202.299L150.12 202.72C149.518 201.339 145.917 200.757 145.315 199.046C144.832 191.585 143.674 188.283 142.317 182.448C140.813 175.983 138.136 170.078 137.02 162.329C135.32 150.529 139.957 142.381 134.111 132.026C131.535 127.463 130.355 123.855 127.444 120.234C118.766 109.437 118.896 120.949 117.493 98.1313C118.44 97.3718 119.094 95.579 120.681 95.8673C122.917 98.704 123.08 102.964 119.227 104.814C119.46 105.407 119.525 106.516 119.595 107.699C119.655 108.712 119.718 109.779 119.892 110.623C119.926 112.796 122.246 114.385 124.345 115.822C125.462 116.588 126.517 117.31 127.13 118.054C127.441 118.431 127.727 118.779 127.997 119.106L128.006 119.116L128.007 119.118C129.387 120.791 130.331 121.935 131.812 123.799C139.435 135.398 138.82 154.293 138.688 158.332C138.68 158.595 138.673 158.795 138.671 158.925C138.637 161.07 139.383 163.273 139.756 164.075C140.054 164.717 140.474 167.281 140.648 168.482C140.648 168.482 141.01 170.998 142.248 173.644C144.12 177.77 145.035 188.32 145.48 193.445L145.48 193.447C145.572 194.507 145.644 195.334 145.7 195.825C146.027 198.687 147.635 200.339 147.983 200.374C148.261 200.403 150.282 201.67 151.258 202.299Z" fill="#FAD49B"/>
<path d="M195.865 183.134C151.8 204.389 115.36 214.734 77.5477 219.829C65.6256 220.79 56.6875 222.486 56.6658 224.714C56.6441 226.942 53.5236 230.848 74.932 229.618C101.693 228.081 173.215 206.073 178.477 203.948C183.738 201.822 243.743 180.664 252.091 164.353C254.03 160.566 248.101 158.65 245.848 159.066C233.456 161.357 215.327 173.747 195.865 183.134Z" fill="#CFFB54"/>
<path d="M129.567 120.698C119.086 131.191 112.679 127.148 101.839 126.225L101.684 126.932C114.839 128.464 119.279 135.898 119.599 139.503C119.826 139.299 119.994 139.275 120.258 139.323C118.917 130.017 122.333 128.756 129.915 121.333L129.567 120.698Z" fill="#EC7D9E"/>
<path d="M113.219 87.0372C112.916 87.151 112.589 87.2878 112.252 87.4359C113.155 94.0454 112.077 99.1713 109.148 100.17C106.172 101.186 102.1 97.663 98.7367 91.7126C98.5131 91.9412 98.2568 92.1578 97.964 92.3594C99.9399 99.7942 99.1088 106.122 95.497 107.765C95.4241 107.798 95.3506 107.829 95.2763 107.858C95.8814 108.46 96.5751 108.984 97.35 109.328C99.7875 110.797 101.439 114.555 102.073 116.372C103.125 112.879 106.884 110.418 115.208 107.918C116.99 107.383 118.423 107.259 119.581 107.441C119.516 106.357 119.444 105.363 119.227 104.813C123.554 102.737 122.817 97.6224 119.769 94.8944L119.77 94.8935C117.367 93.8091 115.032 90.9673 113.219 87.0372Z" fill="#EC7D9E"/>
<path d="M112.018 102.94C111.61 103.084 110.364 103.349 109.668 103.278C109.205 103.829 108.526 104.982 109.514 105.183C110.503 105.383 112.3 104.697 113.074 104.328C114.308 103.381 113.077 102.565 112.018 102.94Z" fill="#FFD79C"/>
<path d="M101.868 71.71C101.88 71.7938 101.274 72.0521 100.393 72.1788C99.5124 72.3054 99.0267 72.8032 98.9307 72.7314C98.5345 72.3604 99.355 71.5576 100.236 71.431C101.117 71.3043 101.856 71.6261 101.868 71.71Z" fill="#E9CF8F"/>
<path d="M101.891 71.8772C101.903 71.9611 101.298 72.2193 100.417 72.3459C99.5366 72.4725 99.0268 72.8025 98.9308 72.7308C98.8348 72.659 99.3791 71.7249 100.26 71.5983C101.14 71.4717 101.879 71.7934 101.891 71.8772Z" fill="white"/>
<path d="M94.6519 75.1441C94.719 75.2072 95.1671 74.8338 95.6403 74.3321C96.1135 73.8303 96.5773 73.8329 96.5553 73.7219C96.5152 73.4435 95.4866 73.5608 95.0134 74.0625C94.5402 74.5643 94.4153 74.9214 94.6519 75.1441Z" fill="#E9CF8F"/>
<path d="M94.6313 75.1505C94.693 75.2086 95.1534 74.9674 95.6244 74.4679C96.0955 73.9683 96.5727 73.8328 96.5559 73.7272C96.5391 73.6215 95.5065 73.7331 95.0355 74.2327C94.5644 74.7322 94.5696 75.0924 94.6313 75.1505Z" fill="white"/>
<path d="M99.8214 71.7351C99.8953 72.0479 99.7189 72.372 99.4063 72.478C99.272 72.5236 99.1331 72.5219 99.0078 72.482C99.1433 72.2531 99.429 71.9247 99.8214 71.7351Z" fill="#009AAF"/>
<path d="M95.3549 73.9891C95.4463 74.3104 95.2688 74.6509 94.9467 74.7602C94.8505 74.7928 94.7521 74.8013 94.6579 74.7888C94.7178 74.6382 94.8326 74.4488 95.0355 74.2336C95.1252 74.1385 95.2353 74.0573 95.3549 73.9891Z" fill="#009AAF"/>
<path fill-rule="evenodd" clip-rule="evenodd" d="M99.6455 70.4877C99.6594 70.4858 99.6728 70.484 99.6856 70.4821C99.7071 70.4791 99.7288 70.4759 99.7509 70.4726C99.9598 70.442 100.195 70.4075 100.425 70.4249C100.432 70.4254 100.442 70.4248 100.47 70.422C100.471 70.4219 100.473 70.4217 100.474 70.4216C100.497 70.4192 100.536 70.4152 100.577 70.4183C100.601 70.4201 100.625 70.4216 100.651 70.4231C100.676 70.4246 100.704 70.4263 100.731 70.4283C100.804 70.4339 100.879 70.4527 100.923 70.4615C100.992 70.4753 101.126 70.5294 101.182 70.5247C101.246 70.5193 101.292 70.5089 101.35 70.5006C101.418 70.4907 101.537 70.4813 101.6 70.4521C101.72 70.3956 101.966 70.3254 101.995 70.3953C102.024 70.4652 101.842 70.6156 101.73 70.6681C101.656 70.7027 101.595 70.7483 101.469 70.7664C101.4 70.7763 101.331 70.7821 101.269 70.7873C101.209 70.7923 101.148 70.7972 101.088 70.8059C100.998 70.8188 100.918 70.8061 100.856 70.7938C100.787 70.7799 100.75 70.7696 100.705 70.7662C100.681 70.7643 100.656 70.7629 100.631 70.7613C100.605 70.7598 100.578 70.7582 100.551 70.7561C100.543 70.7555 100.533 70.7561 100.505 70.759C100.504 70.7591 100.502 70.7592 100.501 70.7594C100.478 70.7618 100.44 70.7658 100.399 70.7627C100.209 70.7483 100.012 70.7771 99.796 70.8085C99.7755 70.8115 99.7548 70.8145 99.7339 70.8175C99.7204 70.8194 99.7074 70.8213 99.6948 70.823C99.5749 70.84 99.4951 70.8512 99.4203 70.8907C99.3519 70.9268 99.2912 70.9634 99.2259 71.0029C99.1848 71.0277 99.1418 71.0536 99.094 71.0812C98.9697 71.1528 98.8494 71.2268 98.7354 71.3058C98.7029 71.3283 98.6732 71.3598 98.634 71.4064C98.6288 71.4126 98.6232 71.4193 98.6174 71.4264C98.5842 71.4664 98.5415 71.5178 98.4928 71.5614C98.4702 71.5817 98.4499 71.602 98.4261 71.6259C98.4136 71.6385 98.4 71.6521 98.3846 71.6672C98.3442 71.7069 98.2949 71.7527 98.2369 71.791C98.1986 71.8164 98.1347 71.8413 98.0785 71.8527C98.0507 71.8584 98.0049 71.8651 97.9566 71.8552C97.9308 71.8499 97.8957 71.8381 97.863 71.8108C97.8277 71.7813 97.8046 71.7413 97.7958 71.6974C97.7771 71.6048 97.7943 71.5161 97.8539 71.4365C97.9326 71.3314 98.0475 71.2617 98.1379 71.1678C98.2095 71.0935 98.3222 70.9764 98.467 70.9217C98.7305 70.8221 99.0134 70.7223 99.2619 70.5912C99.3928 70.5221 99.5341 70.5029 99.6455 70.4877Z" fill="#E9CF8F"/>
<path d="M108.008 84.6053C107.263 85.3892 106.16 76.099 102.827 72.9387C99.4946 69.7784 95.5897 67.3853 96.3344 66.6014C100.096 63.579 102.192 66.9397 105.524 70.1001C108.857 73.2604 108.752 83.8214 108.008 84.6053Z" fill="#FFF7A2"/>
<path d="M94.1042 73.9059C94.1331 73.8777 94.1626 73.8491 94.1926 73.8201C94.2075 73.8057 94.2225 73.7912 94.2376 73.7766C94.2474 73.7671 94.2568 73.7579 94.266 73.749C94.3527 73.6646 94.4104 73.6084 94.4843 73.5702C94.5519 73.5353 94.615 73.5066 94.683 73.4757C94.7258 73.4563 94.7704 73.436 94.8193 73.4127C94.9463 73.3524 95.0724 73.2962 95.198 73.2474C95.2338 73.2335 95.274 73.2263 95.3305 73.2193C95.338 73.2184 95.3461 73.2174 95.3546 73.2164C95.4028 73.2108 95.4648 73.2035 95.5252 73.1876C95.5534 73.1802 95.58 73.1747 95.6113 73.1682C95.6278 73.1648 95.6456 73.1611 95.6656 73.1568C95.7181 73.1453 95.7804 73.1301 95.843 73.1044C95.8845 73.0874 95.9416 73.0503 95.9846 73.0125C96.0058 72.9938 96.0391 72.9617 96.0626 72.9192C96.0751 72.8966 96.0891 72.8635 96.0908 72.8244C96.0926 72.7823 96.0797 72.7444 96.0551 72.7155C96.0032 72.6546 95.9317 72.6234 95.8397 72.6297C95.7675 72.6347 95.6958 72.6558 95.6241 72.677C95.5753 72.6914 95.5265 72.7058 95.4775 72.7151C95.3817 72.7333 95.2308 72.762 95.1025 72.8468C95.0705 72.868 95.0383 72.8894 95.0058 72.911C94.8018 73.0467 94.5899 73.1877 94.378 73.2972C94.2486 73.364 94.147 73.4639 94.0668 73.5426C94.065 73.5444 94.0632 73.5462 94.0614 73.5479C94.0691 73.6638 94.0827 73.7851 94.1042 73.9059Z" fill="#E9CF8F"/>
<path d="M99.1535 72.2738C99.2805 72.3351 99.4425 72.2963 99.5386 72.1734C99.6105 72.0813 99.6276 71.9649 99.5938 71.8668C99.4141 71.9894 99.2653 72.136 99.1535 72.2738Z" fill="black"/>
<path d="M94.7552 74.598C94.8745 74.6428 95.0162 74.6055 95.1011 74.4968C95.1824 74.3928 95.1876 74.2542 95.1243 74.1507C95.0937 74.1769 95.0647 74.2045 95.0375 74.2333C94.9128 74.3655 94.8212 74.4881 94.7552 74.598Z" fill="black"/>
<path d="M98.4337 75.0903C98.4234 75.2476 98.1917 75.3606 97.9162 75.3427C97.6407 75.3248 97.4256 75.1828 97.4358 75.0255C97.4461 74.8681 97.6777 74.7551 97.9533 74.7731C98.2288 74.791 98.4439 74.933 98.4337 75.0903Z" fill="#F4C37A"/>
<path d="M96.565 75.9745C96.7114 76.0228 96.8798 75.9121 96.941 75.727C97.0023 75.542 96.9332 75.3528 96.7868 75.3044C96.6404 75.2561 96.4721 75.3668 96.4108 75.5518C96.3496 75.7369 96.4186 75.9261 96.565 75.9745Z" fill="#F4C37A"/>
<path d="M1.52588e-05 223.584C23.315 225.816 86.5695 230.348 127.557 218.785C180.509 203.846 202.299 169.989 257.186 166.412C277.583 165.083 305.686 167.661 320 169.232V333L1.52588e-05 333V223.584Z" fill="url(#paint0_linear_463_733)"/>
<path d="M165.932 202.798L207.59 210.926L240.41 232.239L296.615 235.518L320 250.273H1.52588e-05L1.60677e-05 223.299C23.293 225.519 86.5808 230.036 127.584 218.525C142.318 214.389 154.639 208.795 165.932 202.798Z" fill="#4AC5D5"/>
<path d="M106.32 222.909C67.263 228.641 19.5666 225.165 1.52588e-05 223.301V265.847H253.101L191.563 237.567L142.742 236.337L111.563 227.138L106.32 222.909Z" fill="#3ABDCD"/>
<path d="M0 224.289L2.09601e-08 227.397C23.1806 232.145 88.146 243.547 129.489 231.94C143.741 227.939 155.488 220.861 166.366 214.307C171.94 210.949 177.285 207.729 182.621 205.13C187.626 202.693 192.516 200.056 197.441 197.4C215.092 187.881 233.189 178.121 258.635 176.471C278.535 175.181 305.533 175.954 320 176.538L320 169.217C305.686 167.653 277.583 165.088 257.186 166.411C232.068 168.04 214.346 179.196 197.118 190.042C192.807 192.756 188.526 195.45 184.169 197.971C179.315 200.779 174.465 204.07 169.448 207.473C157.64 215.484 144.906 224.123 129.006 228.587C87.934 240.117 23.5641 229.049 0 224.289Z" fill="#01A3B1"/>
<path d="M119.082 72.8395C117.53 70.8223 115.785 69.0106 115.46 69.156C115.149 69.2953 114.563 68.9775 114.031 68.6897C113.601 68.4568 113.208 68.2436 113.026 68.308C112.618 68.4522 111.598 67.9143 111.502 67.8425C111.463 67.8128 111.31 67.6085 111.13 67.3691C110.877 67.0306 110.81 66.5021 110.698 66.418C110.698 66.418 112.02 66.3353 112.399 65.7456C112.616 65.4094 112.543 64.9549 112.578 64.6075C112.43 64.3721 112.773 64.9556 112.986 65.0623C113.41 65.2741 114.042 65.2528 114.125 64.6419C114.425 64.941 114.462 65.7915 115.133 65.695C115.804 65.5984 115.936 65.3225 115.936 65.3225C115.936 65.3225 115.542 66.7485 116.489 66.7835C117.005 66.7949 117.05 66.5179 117.05 66.5179C117.05 66.5179 117.125 67.0344 117.628 66.9617C118.513 66.8345 117.877 64.5302 120.058 63.0184L120.53 67.4857C120.906 67.7169 121.696 68.3278 121.851 68.9217C122.043 69.6642 124.829 73.5422 126.593 75.0855C127.285 75.6914 128.145 76.8142 128.998 78.0386L119.082 72.8395Z" fill="#FAD49B"/>
<path d="M70.5868 222.224L95.5948 218.686C127.45 212.856 159.323 202.642 196.604 184.66C203.451 181.357 210.16 177.671 216.467 174.206L216.469 174.205C219.163 172.725 221.783 171.285 224.31 169.932C232.773 165.403 240.121 161.889 245.991 160.764C246.046 160.748 246.1 160.732 246.155 160.718C246.404 160.651 246.66 160.599 246.921 160.561C249.131 160.244 251.214 161.064 252.45 162.541C252.071 159.967 247.708 158.723 245.85 159.066C237.79 160.556 227.305 166.317 215.604 172.746C209.313 176.203 202.672 179.852 195.867 183.134C151.801 204.389 115.361 214.734 77.5494 219.829C66.6232 220.709 58.2032 222.207 56.8562 224.167L66.206 222.844C67.5483 222.623 69.0154 222.416 70.5868 222.224Z" fill="white"/>
<path d="M117.131 66.7377C116.637 66.8553 115.938 66.8077 115.541 66.7483L100.845 185.329C100.558 186.312 100.482 194.11 104.465 207.486C110.94 229.233 109.731 244.04 108.635 250.701C107.538 257.362 78.9208 260.279 76.3176 247.56C73.7145 234.842 80.5746 213.488 87.8916 204.82C93.7452 197.886 96.4718 188.668 97.1034 184.926L113.035 66.5952C113.113 66.0143 112.821 65.8198 112.436 65.6803C112.556 65.4485 112.56 65.1711 112.564 64.9135C112.566 64.8067 112.568 64.7033 112.577 64.608C112.656 64.7257 112.848 64.9932 112.985 65.0621C113.409 65.2739 114.041 65.2526 114.124 64.6416C114.222 64.7389 114.291 64.8945 114.364 65.0568C114.515 65.3937 114.679 65.7599 115.132 65.6948C115.804 65.5983 115.935 65.3223 115.935 65.3223C115.935 65.3223 115.541 66.7484 116.488 66.7834C117.004 66.7948 117.05 66.5178 117.05 66.5178C117.05 66.5178 117.065 66.6269 117.131 66.7377Z" fill="white"/>
<path d="M112.543 64.5543C112.546 64.5609 112.559 64.5803 112.577 64.608C112.547 64.5602 112.537 64.5455 112.543 64.5543Z" fill="white"/>
<path d="M125.814 219.394C128.285 216.129 129.958 213.017 130.709 211.252L131.852 208.294C133.222 207.888 134.596 207.473 135.973 207.047L133.965 212.411C133.747 212.791 133.254 214.504 132.86 217.52C130.531 218.149 128.177 218.776 125.814 219.394Z" fill="#C3ED4B"/>
<path d="M131.852 208.294L131.082 210.286C132.459 209.884 133.839 209.472 135.223 209.049L135.973 207.047C134.595 207.473 133.222 207.888 131.852 208.294Z" fill="#EBEBEB"/>
<path d="M109.434 235.719C98.7421 236.937 87.3368 237.195 75.9891 236.841C75.6091 240.728 75.6732 244.41 76.3182 247.561C78.9213 260.28 107.539 257.363 108.635 250.702C109.158 247.521 109.708 242.483 109.434 235.719Z" fill="#95E2EB"/>
<path d="M1.53752e-05 223.302C23.3152 225.523 86.5694 230.032 127.556 218.526C150.213 212.166 167.164 202.359 183.445 192.94C205.214 180.346 225.783 168.447 257.186 166.41C232.068 168.039 214.346 179.196 197.118 190.042L197.117 190.042C192.806 192.756 188.526 195.45 184.169 197.971C179.315 200.779 174.465 204.069 169.449 207.473C157.641 215.483 144.906 224.123 129.006 228.587C87.934 240.117 23.5641 229.049 1.52588e-05 224.289L1.53752e-05 223.302Z" fill="#B1F8FF"/>
<path d="M266.718 166.062C263.417 166.103 260.216 166.214 257.185 166.41C232.068 168.039 214.345 179.196 197.117 190.041C192.806 192.755 188.526 195.45 184.169 197.971C179.314 200.779 174.464 204.069 169.448 207.473C166.606 209.401 163.71 211.365 160.73 213.299C166.815 211.483 172.053 209.869 176.043 208.603C178.247 207.363 180.435 206.194 182.621 205.13C187.626 202.693 192.516 200.056 197.44 197.4C212.844 189.093 228.587 180.603 249.258 177.479C256.019 173.73 262.092 169.867 266.718 166.062Z" fill="#42C8AB"/>
<path d="M66.845 236.429C71.5695 235.744 76.8385 234.795 82.4551 233.654C66.1026 233.542 49.5434 232.016 35.091 230.12C34.4618 230.556 34.1258 231.013 34.1212 231.49C34.1184 231.784 34.0718 232.101 34.0232 232.433C33.9884 232.67 33.9526 232.915 33.9311 233.162C44.0732 234.542 55.3201 235.756 66.845 236.429Z" fill="#42C8AB"/>
<path d="M73.5785 236.757C73.8302 235.665 74.104 234.574 74.3977 233.489C86.4484 233.893 98.593 233.622 109.906 232.26C110.078 233.403 110.231 234.52 110.365 235.61C98.6515 237.012 86.0471 237.239 73.5785 236.757Z" fill="#6FD8E1"/>
<path d="M91.879 94.5399C92.4658 93.8565 94.6356 93.4589 95.3553 93.6978C96.9751 94.834 97.6134 97.4807 97.4697 97.6725C97.326 97.8643 97.099 98.6672 97.8429 99.0737C98.5867 99.4802 100.412 102.641 100.677 103.287C100.889 103.804 101.429 104.149 101.673 104.256L103.519 103.991L103.723 103.619C103.903 103.48 104.329 103.07 104.597 102.552C104.865 102.035 105.555 101.873 105.867 101.856C106.335 101.732 107.351 101.455 107.677 101.339C108.085 101.195 108.78 101.266 109.056 101.398C109.332 101.529 110.364 102.151 110.556 102.295C110.748 102.438 111.157 103.492 110.246 103.709C110.513 103.784 111.102 104.065 111.314 104.582C111.734 105.719 110.752 106.032 110.584 106.056C110.416 106.08 109.984 106.057 109.432 105.794C109.961 106.488 108.942 107.148 108.523 107.208C108.103 107.268 106.077 107.474 105.645 107.451C105.214 107.427 105.382 108.002 105.586 108.229C105.79 108.457 106.594 108.683 106.715 109.522C106.811 110.193 106.356 110.6 106.116 110.72C105.744 110.517 104.869 110.027 104.341 109.692C103.746 109.846 103.062 109.733 102.794 109.658C101.455 109.879 97.4072 109.012 96.7257 108.562C94.0142 106.984 92.8127 104.589 92.7402 104.086C92.6678 103.583 92.1389 102.29 91.9348 102.063C91.7307 101.835 90.458 100.135 90.2883 98.3628C90.1186 96.5901 91.2922 95.2233 91.879 94.5399Z" fill="#FFE0B2"/>
<path d="M115.422 117.052C115.48 117.451 115.07 116.734 114.699 116.787C114.328 116.84 114.137 117.644 114.079 117.245C114.022 116.846 114.276 116.479 114.647 116.426C115.017 116.372 115.365 116.653 115.422 117.052Z" fill="#E6AC56"/>
<path d="M96.664 95.2066C97.3156 96.3371 97.5646 97.5454 97.4692 97.6726C97.3256 97.8644 97.0986 98.6672 97.8424 99.0737C98.5862 99.4802 100.412 102.64 100.676 103.287C100.88 103.784 101.387 104.122 101.643 104.243C100.857 104.391 100.419 103.601 99.4647 102.606C98.8987 102.015 98.7692 101.415 98.3115 100.546C97.6838 99.3553 96.6614 99.0654 96.5824 98.0569C96.5149 97.1951 97.4661 97.3308 96.664 95.2066Z" fill="#FAD49B"/>
<defs>
<linearGradient id="paint0_linear_463_733" x1="157.765" y1="165.84" x2="157.765" y2="333.066" gradientUnits="userSpaceOnUse">
<stop stop-color="#02AEC2"/>
<stop offset="1" stop-color="#A0FFFF"/>
</linearGradient>
</defs>
</svg>
