<svg width="320" height="327" viewBox="0 0 320 327" fill="none" xmlns="http://www.w3.org/2000/svg">
<path d="M133.879 237.975C115.103 240.127 101.055 235.672 93.2069 222.061C85.2377 208.24 88.6302 193.594 100.306 178.128C80.9923 196.841 -42.5306 251.532 -21.3761 288.221C-0.22164 324.91 108.453 245.109 133.879 237.975Z" fill="url(#paint0_linear_463_235)"/>
<path d="M270.553 80.1436L51.7731 143.394L48.0939 129.215L270.553 80.1436Z" fill="url(#paint1_linear_463_235)"/>
<path d="M301.688 131.328L238.928 198.869L234.706 194.718L301.688 131.328Z" fill="url(#paint2_linear_463_235)"/>
<path d="M280.529 84.2739L193.308 114.093L192.199 108.559L280.529 84.2739Z" fill="url(#paint3_linear_463_235)"/>
<path d="M268.809 178.605C268.809 178.605 256.522 252.015 187.838 271.197L163.14 261.858C245.873 241.352 268.809 178.605 268.809 178.605Z" fill="url(#paint4_linear_463_235)"/>
<path d="M298.62 137.856C298.929 137.679 299.238 137.501 299.548 137.322C317.963 126.676 324.378 103.28 317.79 91.8532C311.201 80.4261 287.759 74.2912 269.344 84.9372C269.034 85.1165 268.725 85.2957 268.418 85.4749C286.754 75.0845 309.949 81.2513 316.494 92.6021C323.039 103.953 316.775 127.151 298.62 137.856Z" fill="white" fill-opacity="0.6"/>
<path d="M237.141 155.57C237.75 154.596 239.883 154.129 241.905 154.526L249.228 155.964C251.25 156.361 252.395 157.472 251.786 158.446C251.177 159.42 249.045 159.887 247.023 159.49L194.05 244.199C193.954 244.498 193.86 244.787 193.77 245.064C193.333 246.412 192.993 247.46 192.993 247.78L192.965 260.63C192.959 263.778 192.36 266.957 189.686 269.687C185.379 274.083 181.11 273.245 173.25 271.701L172.802 271.613C172.8 271.613 172.798 271.613 172.797 271.612C172.795 271.612 172.793 271.612 172.792 271.611L172.343 271.523C164.479 269.979 160.222 269.142 161.767 264.194C162.723 261.132 165.787 258.443 169.279 255.985L183.566 245.928C183.921 245.679 184.823 244.741 185.983 243.535C186.221 243.287 186.47 243.029 186.727 242.762L239.7 158.052C237.678 157.655 236.533 156.544 237.141 155.57Z" fill="url(#paint5_linear_463_235)"/>
<path d="M203.381 208.543L193.142 199.931C184.541 200.888 168.076 203.786 171.025 207.723C173.974 211.66 182.903 213.738 186.999 214.285C181.674 215.925 173.073 224.537 171.025 226.998C169.387 228.967 159.967 235.474 157.51 236.841C155.871 238.071 152.185 238.071 149.728 238.071C147.27 238.071 144.813 241.352 148.499 247.504C149.154 248.488 149.045 249.554 148.909 249.964L146.861 255.296C146.205 255.624 146.315 257.62 146.451 258.577C146.451 258.577 146.779 258.741 146.451 261.038C146.042 263.908 147.27 265.139 147.68 265.549C148.499 267.189 150.137 265.549 149.728 264.729C150.137 264.729 150.547 264.318 150.547 263.908C150.956 263.908 150.956 263.498 150.956 263.088C151.366 263.088 151.776 263.088 151.776 262.678C152.185 262.678 152.185 261.448 152.185 259.397C152.185 257.347 153.004 258.577 155.871 251.195C158.165 245.289 164.472 241.079 167.339 239.712L187.818 228.639C188.91 227.818 193.142 225.112 201.334 220.846C209.525 216.581 206.112 210.867 203.381 208.543Z" fill="#F4E5C7"/>
<path d="M212.475 197.443C146.458 235.609 91.4864 264.024 73.6919 233.162C55.8973 202.3 107.959 168.837 173.975 130.672C239.992 92.5065 303.338 78.6156 312.758 94.9533C322.178 111.291 278.491 159.278 212.475 197.443Z" fill="url(#paint6_linear_463_235)"/>
<path d="M70.6747 225.431L305.403 89.731C307.496 90.4015 309.236 91.2953 310.587 92.4166L72.2114 230.226C71.5226 228.635 71.0129 227.037 70.6747 225.431Z" fill="#A8FFFF"/>
<path d="M313.325 105.066L79.5375 240.222C78.2635 239.16 77.0841 237.949 76.003 236.583L313.982 99.0026C314.145 100.814 313.919 102.844 313.325 105.066Z" fill="#A8FFFF"/>
<path d="M130.784 149.897C128.326 152.357 125.869 157.689 126.688 159.329L137.337 152.768C137.064 155.912 136.682 162.856 137.337 165.481C136.108 167.942 134.47 182.706 134.06 185.167C133.651 187.627 133.241 187.217 132.422 188.037C131.767 188.694 131.603 190.225 131.603 190.908C131.275 192.22 126.825 200.477 126.688 201.161C126.415 201.981 126.115 205.262 127.098 205.262C127.098 206.082 127.098 206.903 128.326 206.903C128.326 208.133 128.736 208.543 129.965 208.543C130.62 209.855 131.603 209.637 132.012 209.363C132.012 210.183 134.47 211.824 135.699 208.543C136.518 206.903 137.746 204.032 137.746 201.981C137.746 200.341 138.292 198.29 138.566 197.47C139.112 196.376 140.204 193.697 140.204 191.728C140.613 185.577 142.252 180.655 142.661 177.784C143.071 174.914 146.347 168.352 150.853 161.38C155.358 154.408 156.177 147.846 156.177 145.796C156.177 143.745 157.406 141.284 157.815 140.874C158.225 140.464 159.454 136.773 159.863 135.543C161.829 131.278 158.225 129.938 156.177 129.801C155.767 129.801 154.784 129.719 154.129 129.391C151.672 128.161 147.986 130.621 147.576 131.442C146.347 131.852 138.975 139.234 138.566 140.464C138.156 141.695 133.241 147.436 130.784 149.897Z" fill="#F4E5C7"/>
<path d="M159.044 234.79C152.901 229.459 145.119 233.15 141.433 243.403C137.746 253.656 136.927 306.97 93.9225 322.965C50.9177 338.959 20.8552 276.786 75.9013 236.431" stroke="#15B7B7" stroke-width="1.23077"/>
<path d="M157.787 235.727C157.404 235.968 157.289 236.475 157.53 236.858L161.494 243.169C161.735 243.552 162.241 243.667 162.624 243.426L162.643 243.414C162.891 243.538 163.196 243.534 163.448 243.375L164.994 242.402C165.246 242.243 165.382 241.97 165.377 241.692L165.397 241.68C165.78 241.438 165.895 240.932 165.654 240.549L161.69 234.238C161.449 233.855 160.944 233.739 160.561 233.98L160.541 233.993C160.293 233.868 159.988 233.873 159.736 234.031L158.19 235.005C157.938 235.164 157.802 235.437 157.807 235.715L157.787 235.727Z" fill="#C98BA9"/>
<defs>
<linearGradient id="paint0_linear_463_235" x1="117.289" y1="207.581" x2="-21.6737" y2="287.705" gradientUnits="userSpaceOnUse">
<stop stop-color="#8BFFFF" stop-opacity="0.12"/>
<stop offset="0.0001" stop-color="white" stop-opacity="0.4"/>
<stop offset="0.776689" stop-color="#FCFCFC" stop-opacity="0"/>
</linearGradient>
<linearGradient id="paint1_linear_463_235" x1="270.553" y1="80.1436" x2="55.3918" y2="131.494" gradientUnits="userSpaceOnUse">
<stop stop-color="white" stop-opacity="0.5"/>
<stop offset="1" stop-color="white" stop-opacity="0"/>
</linearGradient>
<linearGradient id="paint2_linear_463_235" x1="301.688" y1="131.328" x2="237.663" y2="193.938" gradientUnits="userSpaceOnUse">
<stop stop-color="white" stop-opacity="0.5"/>
<stop offset="1" stop-color="white" stop-opacity="0"/>
</linearGradient>
<linearGradient id="paint3_linear_463_235" x1="280.379" y1="84.3077" x2="190.533" y2="111.795" gradientUnits="userSpaceOnUse">
<stop offset="0.25" stop-color="white" stop-opacity="0.5"/>
<stop offset="1" stop-color="white" stop-opacity="0"/>
</linearGradient>
<linearGradient id="paint4_linear_463_235" x1="268.892" y1="184" x2="211.257" y2="170.24" gradientUnits="userSpaceOnUse">
<stop stop-color="white" stop-opacity="0.5"/>
<stop offset="1" stop-color="white" stop-opacity="0"/>
</linearGradient>
<linearGradient id="paint5_linear_463_235" x1="215.881" y1="204.968" x2="201.959" y2="276.419" gradientUnits="userSpaceOnUse">
<stop stop-color="#00B6F0"/>
<stop offset="1" stop-color="#02A3C7"/>
</linearGradient>
<linearGradient id="paint6_linear_463_235" x1="312.758" y1="94.9533" x2="73.5334" y2="232.887" gradientUnits="userSpaceOnUse">
<stop stop-color="#00C2FF"/>
<stop offset="1" stop-color="#0091BF"/>
</linearGradient>
</defs>
</svg>
